<?xml version="1.0" encoding="UTF-8" standalone="no"?>
<!DOCTYPE svg PUBLIC "-//W3C//DTD SVG 1.1//EN" "http://www.w3.org/Graphics/SVG/1.1/DTD/svg11.dtd">
<svg xmlns="http://www.w3.org/2000/svg" xmlns:xl="http://www.w3.org/1999/xlink" version="1.1" xmlns:dc="http://purl.org/dc/elements/1.1/" viewBox="1181 535 215 224" width="215" height="224">
  <defs/>
  <metadata> Produced by OmniGraffle 7.9.3 
    <dc:date>2018-12-11 08:29:13 +0000</dc:date>
  </metadata>
  <g id="intelligence_icon" stroke="none" stroke-opacity="1" stroke-dasharray="none" fill-opacity="1" fill="none">
    <title>intelligence_icon</title>
    <g id="intelligence_icon: Layer 1">
      <title>Layer 1</title>
      <g id="Group_11">
        <g id="Graphic_5">
          <rect x="1259.5117" y="699.5" width="57" height="58.5" fill="black"/>
          <rect x="1259.5117" y="699.5" width="57" height="58.5" stroke="gray" stroke-linecap="round" stroke-linejoin="round" stroke-width="2"/>
        </g>
        <g id="Graphic_2">
          <circle cx="1288.0117" cy="642.25" r="65.2501042630987" fill="black"/>
          <circle cx="1288.0117" cy="642.25" r="65.2501042630987" stroke="gray" stroke-linecap="round" stroke-linejoin="round" stroke-width="1"/>
        </g>
        <g id="Graphic_7">
          <rect x="1259.5117" y="699.5" width="57" height="58.5" fill="black"/>
        </g>
      </g>
      <g id="Graphic_19">
        <path d="M 1241.4507 593.19636 L 1215.633 567.3787 C 1214.4615 566.2071 1212.562 566.2071 1211.3904 567.3787 C 1210.2188 568.55025 1210.2188 570.44975 1211.3904 571.6213 L 1237.2081 597.439 C 1238.3797 598.6106 1240.2792 598.6106 1241.4507 597.439 C 1242.6223 596.2674 1242.6223 594.36794 1241.4507 593.19636 Z" fill="black"/>
      </g>
      <g id="Graphic_20">
        <path d="M 1373.4507 700.6964 L 1347.633 674.8787 C 1346.4615 673.7071 1344.562 673.7071 1343.3904 674.8787 C 1342.2188 676.05025 1342.2188 677.94975 1343.3904 679.1213 L 1369.2081 704.939 C 1370.3797 706.1106 1372.2792 706.1106 1373.4507 704.939 C 1374.6223 703.7674 1374.6223 701.8679 1373.4507 700.6964 Z" fill="black"/>
      </g>
      <g id="Graphic_21">
        <path d="M 1230.6404 675.8787 L 1204.8227 701.6964 C 1203.6511 702.8679 1203.6511 704.7674 1204.8227 705.939 C 1205.9943 707.1106 1207.8938 707.1106 1209.0654 705.939 L 1234.883 680.1213 C 1236.0546 678.94975 1236.0546 677.05025 1234.883 675.8787 C 1233.7115 674.7071 1231.812 674.7071 1230.6404 675.8787 Z" fill="black"/>
      </g>
      <g id="Graphic_22">
        <path d="M 1221.0117 634.5 L 1184.5 634.5 C 1182.8431 634.5 1181.5 635.84315 1181.5 637.5 C 1181.5 639.15685 1182.8431 640.5 1184.5 640.5 L 1221.0117 640.5 C 1222.6686 640.5 1224.0117 639.15685 1224.0117 637.5 C 1224.0117 635.84315 1222.6686 634.5 1221.0117 634.5 Z" fill="black"/>
      </g>
      <g id="Graphic_23">
        <path d="M 1392.5234 634.5 L 1356.0117 634.5 C 1354.3549 634.5 1353.0117 635.84315 1353.0117 637.5 C 1353.0117 639.15685 1354.3549 640.5 1356.0117 640.5 L 1392.5234 640.5 C 1394.1803 640.5 1395.5234 639.15685 1395.5234 637.5 C 1395.5234 635.84315 1394.1803 634.5 1392.5234 634.5 Z" fill="black"/>
      </g>
      <g id="Graphic_24">
        <path d="M 1359.2081 567.3787 L 1333.3904 593.19636 C 1332.2188 594.36794 1332.2188 596.2674 1333.3904 597.439 C 1334.562 598.6106 1336.4615 598.6106 1337.633 597.439 L 1363.4507 571.6213 C 1364.6223 570.44975 1364.6223 568.55025 1363.4507 567.3787 C 1362.2792 566.2071 1360.3797 566.2071 1359.2081 567.3787 Z" fill="black"/>
      </g>
      <g id="Graphic_25">
        <path d="M 1284.5117 538.5 L 1284.5117 575.0117 C 1284.5117 576.6686 1285.8549 578.0117 1287.5117 578.0117 C 1289.1686 578.0117 1290.5117 576.6686 1290.5117 575.0117 L 1290.5117 538.5 C 1290.5117 536.84315 1289.1686 535.5 1287.5117 535.5 C 1285.8549 535.5 1284.5117 536.84315 1284.5117 538.5 Z" fill="black"/>
      </g>
    </g>
  </g>
</svg>
