<?xml version="1.0" encoding="UTF-8" standalone="no"?>
<!DOCTYPE svg PUBLIC "-//W3C//DTD SVG 1.1//EN" "http://www.w3.org/Graphics/SVG/1.1/DTD/svg11.dtd">
<svg xmlns="http://www.w3.org/2000/svg" xmlns:xl="http://www.w3.org/1999/xlink" version="1.1" xmlns:dc="http://purl.org/dc/elements/1.1/" viewBox="252 141 67 65" width="67" height="65">
  <defs/>
  <metadata> Produced by OmniGraffle 7.9.3 
    <dc:date>2018-12-11 08:18:33 +0000</dc:date>
  </metadata>
  <g id="intelligent_player_model_icon" stroke="none" stroke-opacity="1" stroke-dasharray="none" fill-opacity="1" fill="none">
    <title>intelligent_player_model_icon</title>
    <g id="intelligent_player_model_icon: Layer 1">
      <title>Layer 1</title>
      <g id="Group_15">
        <g id="Graphic_2">
          <path d="M 262.64775 174.32595 L 274.16782 151.28582 L 297.20796 151.28582 L 308.72803 174.32595 L 297.20796 197.3661 L 274.16782 197.3661 Z" fill="#ff9300"/>
          <path d="M 262.64775 174.32595 L 274.16782 151.28582 L 297.20796 151.28582 L 308.72803 174.32595 L 297.20796 197.3661 L 274.16782 197.3661 Z" stroke="#ff9300" stroke-linecap="round" stroke-linejoin="round" stroke-width="1"/>
        </g>
        <g id="Graphic_9">
          <title>A</title>
          <path d="M 254.71056 175.07149 L 255.67358 172.35844 L 255.6943 172.35844 L 256.62625 175.07149 Z M 254.86588 170.53594 L 252.07 177.9295 L 253.7061 177.9295 L 254.286 176.28303 L 257.0508 176.28303 L 257.61 177.9295 L 259.29787 177.9295 L 256.53306 170.53594 Z" fill="#942092"/>
        </g>
        <g id="Graphic_10">
          <title>E</title>
          <path d="M 265.9614 198.10645 L 265.9614 205.5 L 271.57386 205.5 L 271.57386 204.13312 L 267.58714 204.13312 L 267.58714 202.32098 L 271.17 202.32098 L 271.17 201.05765 L 267.58714 201.05765 L 267.58714 199.47332 L 271.49102 199.47332 L 271.49102 198.10645 Z" fill="#0432ff"/>
        </g>
        <g id="Graphic_11">
          <title>D</title>
          <path d="M 300.663 204.13312 L 300.663 199.47332 L 301.75373 199.47332 C 302.1303 199.47332 302.4468 199.53027 302.70326 199.64418 C 302.9597 199.75809 303.16585 199.92204 303.32167 200.13605 C 303.4775 200.35006 303.5895 200.6072 303.65766 200.9075 C 303.72583 201.2078 303.7599 201.54434 303.7599 201.91713 C 303.7599 202.32443 303.71122 202.6696 303.61383 202.95264 C 303.51644 203.23568 303.3866 203.46522 303.2243 203.64126 C 303.06197 203.8173 302.87694 203.94328 302.66917 204.01922 C 302.4614 204.09516 302.24716 204.13312 302.0264 204.13312 Z M 299.134 198.10645 L 299.134 205.5 L 302.13354 205.5 C 302.66593 205.5 303.1285 205.40508 303.5213 205.21523 C 303.9141 205.0254 304.24198 204.7648 304.50493 204.43342 C 304.76787 204.10206 304.96427 203.70857 305.09412 203.25294 C 305.22397 202.7973 305.2889 202.30027 305.2889 201.7618 C 305.2889 201.1474 305.20936 200.61239 305.0503 200.15676 C 304.89123 199.70113 304.6705 199.32145 304.38806 199.0177 C 304.10564 198.71394 303.77128 198.48613 303.38497 198.33426 C 302.99867 198.18238 302.58153 198.10645 302.13354 198.10645 Z" fill="#00fdff"/>
        </g>
        <g id="Graphic_12">
          <title>D</title>
          <path d="M 313.6069 176.65585 L 313.6069 171.99605 L 314.69763 171.99605 C 315.0742 171.99605 315.3907 172.053 315.64716 172.16691 C 315.9036 172.28082 316.10975 172.44477 316.26557 172.65878 C 316.4214 172.87279 316.5334 173.12994 316.60155 173.43024 C 316.66973 173.73054 316.7038 174.06707 316.7038 174.43986 C 316.7038 174.84716 316.6551 175.19233 316.55773 175.47537 C 316.46034 175.75841 316.3305 175.98795 316.16818 176.16399 C 316.00587 176.34002 315.82083 176.46601 315.61307 176.54195 C 315.4053 176.61789 315.19106 176.65585 314.9703 176.65585 Z M 312.0779 170.62918 L 312.0779 178.02273 L 315.07744 178.02273 C 315.60983 178.02273 316.0724 177.9278 316.4652 177.73796 C 316.858 177.54812 317.18588 177.28752 317.44883 176.95615 C 317.71177 176.62479 317.90817 176.2313 318.03802 175.77567 C 318.16787 175.32004 318.2328 174.823 318.2328 174.28453 C 318.2328 173.67013 318.15326 173.13512 317.9942 172.67949 C 317.83513 172.22386 317.6144 171.84418 317.33196 171.54043 C 317.04954 171.23667 316.71518 171.00886 316.32887 170.85699 C 315.94256 170.70511 315.52543 170.62918 315.07744 170.62918 Z" fill="#00fa00"/>
        </g>
        <g id="Graphic_13">
          <title>C</title>
          <path d="M 269.65397 144.5912 L 271.14287 144.5912 C 271.09716 144.16318 270.98614 143.7835 270.80983 143.45213 C 270.6335 143.12077 270.40985 142.8429 270.13884 142.61855 C 269.86783 142.39418 269.5609 142.22333 269.21808 142.10597 C 268.87524 141.98861 268.51118 141.92993 268.1259 141.92993 C 267.5904 141.92993 267.1088 142.03003 266.68107 142.23023 C 266.25334 142.43043 265.89254 142.70656 265.59868 143.05864 C 265.30482 143.41071 265.07953 143.82319 264.9228 144.29607 C 264.76607 144.76896 264.6877 145.28153 264.6877 145.83381 C 264.6877 146.37228 264.76607 146.8745 264.9228 147.34048 C 265.07953 147.80646 265.30482 148.21203 265.59868 148.5572 C 265.89254 148.90238 266.25334 149.17333 266.68107 149.37008 C 267.1088 149.56683 267.5904 149.6652 268.1259 149.6652 C 268.5569 149.6652 268.95197 149.59617 269.31113 149.4581 C 269.6703 149.32003 269.98375 149.11984 270.2515 148.8575 C 270.51923 148.59517 270.73473 148.27762 270.89798 147.90483 C 271.06124 147.53205 271.16246 147.1144 271.20164 146.65186 L 269.71274 146.65186 C 269.65397 147.14891 269.49235 147.5493 269.22787 147.85306 C 268.9634 148.15681 268.59607 148.30868 268.1259 148.30868 C 267.7798 148.30868 267.48593 148.23792 267.2443 148.0964 C 267.0027 147.95488 266.80678 147.76677 266.65658 147.53205 C 266.5064 147.29733 266.397 147.03328 266.32844 146.73988 C 266.25987 146.44649 266.2256 146.14447 266.2256 145.83381 C 266.2256 145.50935 266.25987 145.19525 266.32844 144.8915 C 266.397 144.58774 266.5064 144.31679 266.65658 144.07862 C 266.80678 143.84045 267.0027 143.6506 267.2443 143.50909 C 267.48593 143.36757 267.7798 143.2968 268.1259 143.2968 C 268.31527 143.2968 268.49648 143.3296 268.66953 143.39518 C 268.8426 143.46076 268.99768 143.55223 269.1348 143.66959 C 269.27195 143.78695 269.38623 143.92329 269.47765 144.07862 C 269.56908 144.23394 269.62785 144.4048 269.65397 144.5912 Z" fill="#ff2600"/>
        </g>
        <g id="Graphic_14">
          <title>P</title>
          <path d="M 300.68092 145.40925 L 300.68092 143.19325 L 301.883 143.19325 C 302.06034 143.19325 302.23112 143.20706 302.39534 143.23468 C 302.55955 143.26229 302.70406 143.31579 302.82887 143.39518 C 302.95367 143.47457 303.05384 143.58675 303.12938 143.73172 C 303.20492 143.8767 303.2427 144.06654 303.2427 144.30125 C 303.2427 144.53597 303.20492 144.72581 303.12938 144.87078 C 303.05384 145.01576 302.95367 145.12794 302.82887 145.20733 C 302.70406 145.28671 302.55955 145.34022 302.39534 145.36783 C 302.23112 145.39544 302.06034 145.40925 301.883 145.40925 Z M 299.134 141.92993 L 299.134 149.32348 L 300.68092 149.32348 L 300.68092 146.67257 L 302.30666 146.67257 C 302.74676 146.67257 303.12117 146.60527 303.4299 146.47065 C 303.73862 146.33603 303.98987 146.15827 304.18365 145.93736 C 304.37742 145.71645 304.51865 145.46275 304.60732 145.17626 C 304.696 144.88977 304.74034 144.5981 304.74034 144.30125 C 304.74034 143.9975 304.696 143.70411 304.60732 143.42107 C 304.51865 143.13803 304.37742 142.88605 304.18365 142.66514 C 303.98987 142.44423 303.73862 142.26647 303.4299 142.13186 C 303.12117 141.99724 302.74676 141.92993 302.30666 141.92993 Z" fill="black"/>
        </g>
      </g>
    </g>
  </g>
</svg>
