<?xml version="1.0" encoding="UTF-8" standalone="no"?>
<!DOCTYPE svg PUBLIC "-//W3C//DTD SVG 1.1//EN" "http://www.w3.org/Graphics/SVG/1.1/DTD/svg11.dtd">
<svg xmlns="http://www.w3.org/2000/svg" xmlns:xl="http://www.w3.org/1999/xlink" version="1.1" xmlns:dc="http://purl.org/dc/elements/1.1/" viewBox="1042 421 229 230" width="229" height="230">
  <defs/>
  <metadata> Produced by OmniGraffle 7.9.3 
    <dc:date>2018-12-11 08:18:33 +0000</dc:date>
  </metadata>
  <g id="intelligence_icon" stroke="none" stroke-opacity="1" stroke-dasharray="none" fill-opacity="1" fill="none">
    <title>intelligence_icon</title>
    <g id="intelligence_icon: Layer 1">
      <title>Layer 1</title>
      <g id="Group_11">
        <g id="Graphic_5">
          <rect x="1128" y="591.5" width="57" height="58.5" fill="black"/>
          <rect x="1128" y="591.5" width="57" height="58.5" stroke="gray" stroke-linecap="round" stroke-linejoin="round" stroke-width="2"/>
        </g>
        <g id="Graphic_2">
          <circle cx="1156.5" cy="534.25" r="65.2501042630987" fill="black"/>
          <circle cx="1156.5" cy="534.25" r="65.2501042630987" stroke="gray" stroke-linecap="round" stroke-linejoin="round" stroke-width="1"/>
        </g>
        <g id="Graphic_7">
          <rect x="1128" y="591.5" width="57" height="58.5" fill="black"/>
        </g>
      </g>
      <g id="Graphic_19">
        <path d="M 1098.939 481.19636 L 1073.1213 455.3787 C 1071.9497 454.2071 1070.0503 454.2071 1068.8787 455.3787 C 1067.7071 456.55025 1067.7071 458.44975 1068.8787 459.6213 L 1094.6964 485.439 C 1095.868 486.6106 1097.7674 486.6106 1098.939 485.439 C 1100.1106 484.26743 1100.1106 482.36794 1098.939 481.19636 Z" fill="black"/>
      </g>
      <g id="Graphic_20">
        <path d="M 1244.939 595.69636 L 1219.1213 569.8787 C 1217.9497 568.7071 1216.0503 568.7071 1214.8787 569.8787 C 1213.7071 571.05025 1213.7071 572.94975 1214.8787 574.1213 L 1240.6964 599.939 C 1241.868 601.1106 1243.7674 601.1106 1244.939 599.939 C 1246.1106 598.7674 1246.1106 596.86794 1244.939 595.69636 Z" fill="black"/>
      </g>
      <g id="Graphic_21">
        <path d="M 1090.1287 569.8787 L 1064.311 595.69636 C 1063.1394 596.86794 1063.1394 598.7674 1064.311 599.939 C 1065.4826 601.1106 1067.382 601.1106 1068.5536 599.939 L 1094.3713 574.1213 C 1095.5429 572.94975 1095.5429 571.05025 1094.3713 569.8787 C 1093.1997 568.7071 1091.3003 568.7071 1090.1287 569.8787 Z" fill="black"/>
      </g>
      <g id="Graphic_22">
        <path d="M 1082.5 526.5 L 1045.9883 526.5 C 1044.3314 526.5 1042.9883 527.84315 1042.9883 529.5 C 1042.9883 531.15685 1044.3314 532.5 1045.9883 532.5 L 1082.5 532.5 C 1084.1569 532.5 1085.5 531.15685 1085.5 529.5 C 1085.5 527.84315 1084.1569 526.5 1082.5 526.5 Z" fill="black"/>
      </g>
      <g id="Graphic_23">
        <path d="M 1267.0117 526.5 L 1230.5 526.5 C 1228.8431 526.5 1227.5 527.84315 1227.5 529.5 C 1227.5 531.15685 1228.8431 532.5 1230.5 532.5 L 1267.0117 532.5 C 1268.6686 532.5 1270.0117 531.15685 1270.0117 529.5 C 1270.0117 527.84315 1268.6686 526.5 1267.0117 526.5 Z" fill="black"/>
      </g>
      <g id="Graphic_24">
        <path d="M 1231.6964 455.3787 L 1205.8787 481.19636 C 1204.7071 482.36794 1204.7071 484.26743 1205.8787 485.439 C 1207.0503 486.6106 1208.9497 486.6106 1210.1213 485.439 L 1235.939 459.6213 C 1237.1106 458.44975 1237.1106 456.55025 1235.939 455.3787 C 1234.7674 454.2071 1232.868 454.2071 1231.6964 455.3787 Z" fill="black"/>
      </g>
      <g id="Graphic_25">
        <path d="M 1153 424.5 L 1153 461.0117 C 1153 462.6686 1154.3431 464.0117 1156 464.0117 C 1157.6569 464.0117 1159 462.6686 1159 461.0117 L 1159 424.5 C 1159 422.84315 1157.6569 421.5 1156 421.5 C 1154.3431 421.5 1153 422.84315 1153 424.5 Z" fill="black"/>
      </g>
    </g>
  </g>
</svg>
