<?xml version="1.0" encoding="UTF-8" standalone="no"?>
<!DOCTYPE svg PUBLIC "-//W3C//DTD SVG 1.1//EN" "http://www.w3.org/Graphics/SVG/1.1/DTD/svg11.dtd">
<svg xmlns:dc="http://purl.org/dc/elements/1.1/" version="1.1" xmlns="http://www.w3.org/2000/svg" xmlns:xl="http://www.w3.org/1999/xlink" viewBox="252 141 129 124" width="129" height="124">
  <defs/>
  <metadata> Produced by OmniGraffle 7.9.2 
    <dc:date>2018-11-27 00:02:41 +0000</dc:date>
  </metadata>
  <g id="intelligent_player_model_icon" stroke-opacity="1" stroke-dasharray="none" fill="none" stroke="none" fill-opacity="1">
    <title>intelligent_player_model icon</title>
    <rect fill="white" x="252" y="141" width="129" height="124"/>
    <g id="intelligent_player_model_icon: Layer 1">
      <title>Layer 1</title>
      <g id="Graphic_2">
        <path d="M 272.5 204.5 L 294.75 160 L 339.25 160 L 361.5 204.5 L 339.25 249 L 294.75 249 Z" fill="#ff9300"/>
        <path d="M 272.5 204.5 L 294.75 160 L 339.25 160 L 361.5 204.5 L 339.25 249 L 294.75 249 Z" stroke="#ff9300" stroke-linecap="round" stroke-linejoin="round" stroke-width="1"/>
      </g>
      <g id="Graphic_9">
        <title>A</title>
        <path d="M 257.17 205.93993 L 259.03 200.69993 L 259.07 200.69993 L 260.87 205.93993 Z M 257.47 197.17993 L 252.07 211.45993 L 255.23 211.45993 L 256.35 208.27993 L 261.69 208.27993 L 262.77 211.45993 L 266.03 211.45993 L 260.69 197.17993 Z" fill="#942092"/>
      </g>
      <g id="Graphic_10">
        <title>E</title>
        <path d="M 278.9 250.42993 L 278.9 264.70993 L 289.74 264.70993 L 289.74 262.06993 L 282.04 262.06993 L 282.04 258.56993 L 288.96 258.56993 L 288.96 256.12993 L 282.04 256.12993 L 282.04 253.06993 L 289.58 253.06993 L 289.58 250.42993 Z" fill="#0432ff"/>
      </g>
      <g id="Graphic_11">
        <title>D</title>
        <path d="M 345.9231 262.06993 L 345.9231 253.06993 L 348.02976 253.06993 C 348.75707 253.06993 349.36837 253.17993 349.8637 253.39993 C 350.359 253.61993 350.75714 253.9366 351.0581 254.34993 C 351.35905 254.76327 351.57536 255.25993 351.70702 255.83993 C 351.8387 256.41993 351.90452 257.06993 351.90452 257.78993 C 351.90452 258.5766 351.81048 259.24326 351.6224 259.78993 C 351.4343 260.3366 351.1835 260.77993 350.87 261.11993 C 350.5565 261.45993 350.19913 261.70326 349.79786 261.84993 C 349.3966 261.9966 348.9828 262.06993 348.55643 262.06993 Z M 342.97 250.42993 L 342.97 264.70993 L 348.76333 264.70993 C 349.7916 264.70993 350.68504 264.5266 351.4437 264.15993 C 352.20235 263.79326 352.8356 263.28993 353.34345 262.64993 C 353.8513 262.00993 354.23063 261.24993 354.48143 260.36993 C 354.73222 259.48993 354.8576 258.52994 354.8576 257.48993 C 354.8576 256.30326 354.704 255.26993 354.3968 254.38993 C 354.08956 253.50993 353.6632 252.7766 353.11774 252.18993 C 352.57226 251.60326 351.92647 251.16327 351.18036 250.86993 C 350.43424 250.5766 349.62858 250.42993 348.76333 250.42993 Z" fill="#00fdff"/>
      </g>
      <g id="Graphic_12">
        <title>D</title>
        <path d="M 370.9231 209 L 370.9231 200 L 373.02976 200 C 373.75707 200 374.36837 200.11 374.8637 200.33 C 375.359 200.55 375.75714 200.86666 376.0581 201.28 C 376.35905 201.69334 376.57536 202.19 376.70702 202.77 C 376.8387 203.35 376.90452 204 376.90452 204.72 C 376.90452 205.50667 376.81048 206.17333 376.6224 206.72 C 376.4343 207.26667 376.1835 207.71 375.87 208.05 C 375.5565 208.39 375.19913 208.63333 374.79786 208.78 C 374.3966 208.92667 373.9828 209 373.55643 209 Z M 367.97 197.36 L 367.97 211.64 L 373.76333 211.64 C 374.7916 211.64 375.68504 211.45667 376.4437 211.09 C 377.20235 210.72333 377.8356 210.22 378.34345 209.58 C 378.8513 208.94 379.23063 208.18 379.48143 207.3 C 379.73222 206.42 379.8576 205.46 379.8576 204.42 C 379.8576 203.23333 379.704 202.2 379.3968 201.32 C 379.08956 200.44 378.6632 199.70667 378.11774 199.12 C 377.57226 198.53333 376.92647 198.09333 376.18036 197.8 C 375.43424 197.50667 374.62858 197.36 373.76333 197.36 Z" fill="#00fa00"/>
      </g>
      <g id="Graphic_13">
        <title>C</title>
        <path d="M 286.0319 147.06993 L 288.90757 147.06993 C 288.81928 146.24326 288.60487 145.50993 288.26432 144.86993 C 287.92378 144.22993 287.4918 143.69327 286.96838 143.25993 C 286.44495 142.8266 285.85217 142.4966 285.19 142.26993 C 284.52783 142.04326 283.8247 141.92993 283.08054 141.92993 C 282.0463 141.92993 281.11613 142.12326 280.29 142.50993 C 279.46387 142.8966 278.76703 143.42993 278.19946 144.10993 C 277.6319 144.78993 277.19676 145.5866 276.89405 146.49993 C 276.59135 147.41327 276.44 148.40326 276.44 149.46993 C 276.44 150.50994 276.59135 151.47993 276.89405 152.37993 C 277.19676 153.27993 277.6319 154.06326 278.19946 154.72993 C 278.76703 155.3966 279.46387 155.91993 280.29 156.29993 C 281.11613 156.67993 282.0463 156.86993 283.08054 156.86993 C 283.91298 156.86993 284.67603 156.7366 285.36973 156.46993 C 286.06343 156.20326 286.66883 155.8166 287.18595 155.30993 C 287.70307 154.80326 288.11928 154.18993 288.4346 153.46993 C 288.7499 152.74993 288.9454 151.94327 289.02108 151.04993 L 286.1454 151.04993 C 286.0319 152.00994 285.71973 152.78326 285.20892 153.36993 C 284.6981 153.9566 283.98865 154.24993 283.08054 154.24993 C 282.41207 154.24993 281.8445 154.11327 281.37784 153.83993 C 280.91117 153.5666 280.5328 153.20327 280.2427 152.74993 C 279.9526 152.2966 279.74135 151.7866 279.60892 151.21993 C 279.4765 150.65326 279.41027 150.06993 279.41027 149.46993 C 279.41027 148.84326 279.4765 148.2366 279.60892 147.64993 C 279.74135 147.06326 279.9526 146.53993 280.2427 146.07993 C 280.5328 145.61993 280.91117 145.25327 281.37784 144.97993 C 281.8445 144.7066 282.41207 144.56993 283.08054 144.56993 C 283.4463 144.56993 283.7963 144.63326 284.13054 144.75993 C 284.46478 144.8866 284.76432 145.06326 285.0292 145.28993 C 285.29406 145.5166 285.51477 145.77993 285.69135 146.07993 C 285.86793 146.37993 285.98144 146.70993 286.0319 147.06993 Z" fill="#ff2600"/>
      </g>
      <g id="Graphic_14">
        <title>P</title>
        <path d="M 345.95773 148.64993 L 345.95773 144.36993 L 348.2794 144.36993 C 348.62194 144.36993 348.9518 144.3966 349.26896 144.44993 C 349.58613 144.50326 349.86524 144.6066 350.1063 144.75993 C 350.34734 144.91326 350.5408 145.12993 350.6867 145.40993 C 350.8326 145.68993 350.90555 146.0566 350.90555 146.50993 C 350.90555 146.96327 350.8326 147.32993 350.6867 147.60993 C 350.5408 147.88993 350.34734 148.1066 350.1063 148.25993 C 349.86524 148.41326 349.58613 148.5166 349.26896 148.56993 C 348.9518 148.62326 348.62194 148.64993 348.2794 148.64993 Z M 342.97 141.92993 L 342.97 156.20993 L 345.95773 156.20993 L 345.95773 151.08993 L 349.0977 151.08993 C 349.9477 151.08993 350.67084 150.95993 351.26712 150.69993 C 351.8634 150.43993 352.34867 150.0966 352.72293 149.66993 C 353.0972 149.24326 353.36995 148.75327 353.5412 148.19993 C 353.7125 147.6466 353.79813 147.08327 353.79813 146.50993 C 353.79813 145.92326 353.7125 145.3566 353.5412 144.80993 C 353.36995 144.26326 353.0972 143.7766 352.72293 143.34993 C 352.34867 142.92326 351.8634 142.57993 351.26712 142.31993 C 350.67084 142.05993 349.9477 141.92993 349.0977 141.92993 Z" fill="black"/>
      </g>
    </g>
  </g>
</svg>
